<?xml version="1.0" encoding="iso-8859-1"?>
<!-- Generator: Adobe Illustrator 19.0.0, SVG Export Plug-In . SVG Version: 6.00 Build 0)  -->
<svg version="1.1" id="Capa_1" xmlns="http://www.w3.org/2000/svg" xmlns:xlink="http://www.w3.org/1999/xlink" x="0px" y="0px"
	 viewBox="0 0 512.02 512.02" style="enable-background:new 0 0 512.02 512.02;" xml:space="preserve">
<path style="fill:#CFD8DC;" d="M501.334,53.343H10.667c-5.891,0-10.667,4.776-10.667,10.667v384c0,5.891,4.776,10.667,10.667,10.667
	c3.357,0,6.519-1.581,8.533-4.267l152.597-203.499l55.317,55.317c2.319,2.402,5.659,3.531,8.96,3.029
	c3.295-0.437,6.198-2.386,7.851-5.269l76.331-133.611l171.947,283.179c1.939,3.185,5.401,5.127,9.131,5.12
	c0.974-0.001,1.943-0.137,2.88-0.405c4.601-1.29,7.783-5.483,7.787-10.261v-384C512.001,58.119,507.225,53.343,501.334,53.343z"/>
<path style="fill:#2196F3;" d="M510.465,442.463L329.131,143.797c-2.07-3.121-5.536-5.033-9.28-5.12
	c-3.781,0.047-7.255,2.092-9.131,5.376l-78.4,137.216l-54.101-54.144c-4.165-4.166-10.919-4.168-15.085-0.003
	c-0.361,0.361-0.695,0.746-1,1.155l-160,213.333c-3.535,4.713-2.579,11.399,2.133,14.933c1.846,1.385,4.092,2.133,6.4,2.133h490.667
	c5.891,0.011,10.675-4.756,10.686-10.647C512.024,446.066,511.486,444.14,510.465,442.463z"/>
<circle style="fill:#FFC107;" cx="181.334" cy="149.343" r="53.333"/>
<g>
</g>
<g>
</g>
<g>
</g>
<g>
</g>
<g>
</g>
<g>
</g>
<g>
</g>
<g>
</g>
<g>
</g>
<g>
</g>
<g>
</g>
<g>
</g>
<g>
</g>
<g>
</g>
<g>
</g>
</svg>
